<svg xmlns="http://www.w3.org/2000/svg"  viewBox="0 0 256 256" width="64px" height="64px"><path fill="#f9b087" d="M153.565,222.006a2.5,2.5,0,0,1-2.5-2.5V191.7a10.624,10.624,0,0,0-10.612-10.612H116.14A10.625,10.625,0,0,0,105.527,191.7v27.811a2.5,2.5,0,0,1-5,0V191.7a15.631,15.631,0,0,1,15.613-15.612h24.313A15.63,15.63,0,0,1,156.065,191.7v27.811A2.5,2.5,0,0,1,153.565,222.006Z"/><path fill="#f9b087" d="M128,176.934a20.727,20.727,0,1,1,20.726-20.726A20.75,20.75,0,0,1,128,176.934Zm0-36.453a15.727,15.727,0,1,0,15.726,15.727A15.744,15.744,0,0,0,128,140.481Z"/><path fill="#f9b087" d="M211.959,154.729a2.5,2.5,0,0,1-2.5-2.5V135.194a5.538,5.538,0,0,0-5.531-5.532H189.034a5.538,5.538,0,0,0-5.532,5.532v17.035a2.5,2.5,0,0,1-5,0V135.194a10.544,10.544,0,0,1,10.532-10.532h14.894a10.544,10.544,0,0,1,10.531,10.532v17.035A2.5,2.5,0,0,1,211.959,154.729Z"/><path fill="#f9b087" d="M196.3,127.121a13.665,13.665,0,1,1,13.665-13.665A13.68,13.68,0,0,1,196.3,127.121Zm0-22.329a8.665,8.665,0,1,0,8.665,8.664A8.674,8.674,0,0,0,196.3,104.792Z"/><path fill="#f9b087" d="M75.361,154.729a2.5,2.5,0,0,1-2.5-2.5V135.194a5.538,5.538,0,0,0-5.532-5.532H52.436a5.539,5.539,0,0,0-5.533,5.532v17.035a2.5,2.5,0,0,1-5,0V135.194a10.545,10.545,0,0,1,10.533-10.532H67.329a10.544,10.544,0,0,1,10.532,10.532v17.035A2.5,2.5,0,0,1,75.361,154.729Z"/><path fill="#f9b087" d="M59.7,127.121a13.665,13.665,0,1,1,13.664-13.665A13.68,13.68,0,0,1,59.7,127.121Zm0-22.329a8.665,8.665,0,1,0,8.664,8.664A8.674,8.674,0,0,0,59.7,104.792Z"/><path fill="#846f75" d="M188.95,162.55a2.5,2.5,0,0,0-2.5,2.5,58.45,58.45,0,1,1-116.9,0,2.5,2.5,0,0,0-5,0,63.45,63.45,0,1,0,126.9,0A2.5,2.5,0,0,0,188.95,162.55Z"/><path fill="#846f75" d="M196.3,79.037a39.836,39.836,0,1,0,39.836,39.836A39.88,39.88,0,0,0,196.3,79.037Zm0,74.671a34.836,34.836,0,1,1,34.836-34.835A34.875,34.875,0,0,1,196.3,153.708Z"/><path fill="#846f75" d="M99.536,118.873A39.836,39.836,0,1,0,59.7,158.708,39.88,39.88,0,0,0,99.536,118.873ZM59.7,153.708a34.836,34.836,0,1,1,34.835-34.835A34.875,34.875,0,0,1,59.7,153.708Z"/><path fill="#846f75" d="M95.239,73.7l6.564,1.692L98.356,81.23a5.707,5.707,0,0,0,.883,6.93L104.38,93.3a5.709,5.709,0,0,0,6.932.881l5.836-3.446,1.693,6.568a5.706,5.706,0,0,0,5.524,4.275h7.27A5.707,5.707,0,0,0,137.16,97.3l1.692-6.565,5.84,3.449a5.706,5.706,0,0,0,6.928-.884l5.141-5.141a5.708,5.708,0,0,0,.882-6.932L154.2,75.391l6.566-1.693a5.705,5.705,0,0,0,4.277-5.523V60.9a5.708,5.708,0,0,0-4.275-5.524h0L154.2,53.688l3.447-5.839a5.7,5.7,0,0,0-.883-6.93l-5.141-5.141a5.708,5.708,0,0,0-6.932-.882l-5.836,3.446-1.693-6.566a5.706,5.706,0,0,0-5.524-4.276h-7.27a5.707,5.707,0,0,0-5.525,4.278l-1.692,6.564L111.309,34.9a5.705,5.705,0,0,0-6.929.882l-5.14,5.14a5.705,5.705,0,0,0-.883,6.933l3.446,5.837L95.235,55.38A5.708,5.708,0,0,0,90.96,60.9v7.271A5.707,5.707,0,0,0,95.239,73.7ZM95.96,60.9a.707.707,0,0,1,.527-.683L106.27,57.7a2.5,2.5,0,0,0,1.529-3.691l-5.134-8.7a.708.708,0,0,1,.109-.858l5.141-5.141a.7.7,0,0,1,.856-.11l8.7,5.135a2.5,2.5,0,0,0,3.691-1.529l2.52-9.781a.707.707,0,0,1,.684-.528h7.27a.706.706,0,0,1,.683.526l2.521,9.783a2.5,2.5,0,0,0,3.691,1.529l8.7-5.134a.711.711,0,0,1,.858.109l5.142,5.142a.707.707,0,0,1,.109.855l-5.135,8.7A2.5,2.5,0,0,0,149.73,57.7l9.781,2.52a.709.709,0,0,1,.529.684v7.271a.705.705,0,0,1-.527.682l-9.783,2.521a2.5,2.5,0,0,0-1.529,3.691l5.134,8.7a.709.709,0,0,1-.109.859l-5.141,5.141a.712.712,0,0,1-.856.111l-8.7-5.136a2.5,2.5,0,0,0-3.691,1.529l-2.52,9.78a.707.707,0,0,1-.684.529h-7.27a.706.706,0,0,1-.683-.526l-2.521-9.783a2.5,2.5,0,0,0-3.691-1.529l-8.7,5.133a.711.711,0,0,1-.859-.108l-5.141-5.141a.707.707,0,0,1-.11-.856l5.135-8.7a2.5,2.5,0,0,0-1.529-3.691l-9.781-2.52a.707.707,0,0,1-.529-.683Z"/><path fill="#f9b087" d="M128,78.184a13.644,13.644,0,1,1,13.644-13.645A13.66,13.66,0,0,1,128,78.184ZM128,55.9a8.644,8.644,0,1,0,8.644,8.643A8.653,8.653,0,0,0,128,55.9Z"/></svg>