<svg xmlns="http://www.w3.org/2000/svg"  viewBox="0 0 64 64" width="64px" height="64px"><path fill="#D2D2D2" d="M40,42.521V16H24v36h12.051C36.021,51.67,36,51.338,36,51C36,47.592,37.559,44.541,40,42.521z"/><path fill="#F0F0F0" d="M47,40c3.72,0,7.008,1.861,9,4.695V16H40v26.521C41.903,40.947,44.343,40,47,40z"/><rect width="16" height="8" x="8" y="8" fill="#FA6450"/><rect width="4" height="8" x="8" y="8" fill="#DC4632"/><rect width="16" height="8" x="24" y="8" fill="#FAB400"/><rect width="16" height="8" x="40" y="8" fill="#64C8F0"/><rect width="16" height="36" x="8" y="16" fill="#F0F0F0" transform="rotate(-180 16 34)"/><rect width="4" height="36" x="8" y="16" fill="#D2D2D2" transform="rotate(-180 10 34)"/><rect width="8" height="1" x="44" y="11.5" fill="#F0F0F0"/><rect width="8" height="1" x="44" y="11.5" fill="#F0F0F0"/><rect width="8" height="1" x="28" y="11.5" fill="#F0F0F0"/><rect width="8" height="1" x="12" y="11.5" fill="#F0F0F0"/><rect width="8" height="1" x="44" y="43.5" fill="#505050"/><path fill="#3CC8B4" d="M47,60L47,60c-4.971,0-9-4.029-9-9v0c0-4.971,4.029-9,9-9h0c4.971,0,9,4.029,9,9v0 C56,55.971,51.971,60,47,60z"/><path fill="#1EAA96" d="M40,51c0-4.632,3.501-8.443,8-8.941C47.671,42.022,47.338,42,47,42c-4.971,0-9,4.029-9,9s4.029,9,9,9 c0.338,0,0.671-0.022,1-0.059C43.501,59.443,40,55.632,40,51z"/><polygon fill="#F0F0F0" points="52,50 46,56 42,52 44,50 46,52 50,48"/><rect width="8" height="8" x="12" y="20" fill="#FA6450"/><path fill="#505050" d="M16,22L16,22c-0.552,0-1-0.448-1-1v0c0-0.552,0.448-1,1-1h0c0.552,0,1,0.448,1,1v0 C17,21.552,16.552,22,16,22z"/><rect width="8" height="8" x="12" y="30" fill="#FA6450"/><path fill="#505050" d="M16,32L16,32c-0.552,0-1-0.448-1-1v0c0-0.552,0.448-1,1-1h0c0.552,0,1,0.448,1,1v0 C17,31.552,16.552,32,16,32z"/><rect width="8" height="8" x="12" y="40" fill="#FA6450"/><path fill="#505050" d="M16,42L16,42c-0.552,0-1-0.448-1-1l0,0c0-0.552,0.448-1,1-1h0c0.552,0,1,0.448,1,1l0,0 C17,41.552,16.552,42,16,42z"/><rect width="8" height="8" x="28" y="20" fill="#FAB400"/><path fill="#505050" d="M32,22L32,22c-0.552,0-1-0.448-1-1v0c0-0.552,0.448-1,1-1h0c0.552,0,1,0.448,1,1v0 C33,21.552,32.552,22,32,22z"/><rect width="8" height="8" x="28" y="30" fill="#FAB400"/><path fill="#505050" d="M32,32L32,32c-0.552,0-1-0.448-1-1v0c0-0.552,0.448-1,1-1h0c0.552,0,1,0.448,1,1v0 C33,31.552,32.552,32,32,32z"/><rect width="8" height="8" x="28" y="40" fill="#FAB400"/><path fill="#505050" d="M32,42L32,42c-0.552,0-1-0.448-1-1l0,0c0-0.552,0.448-1,1-1h0c0.552,0,1,0.448,1,1l0,0 C33,41.552,32.552,42,32,42z"/><rect width="8" height="8" x="44" y="20" fill="#64C8F0"/><path fill="#505050" d="M48,22L48,22c-0.552,0-1-0.448-1-1v0c0-0.552,0.448-1,1-1l0,0c0.552,0,1,0.448,1,1v0 C49,21.552,48.552,22,48,22z"/><rect width="8" height="8" x="44" y="30" fill="#64C8F0"/><path fill="#505050" d="M48,32L48,32c-0.552,0-1-0.448-1-1v0c0-0.552,0.448-1,1-1l0,0c0.552,0,1,0.448,1,1v0 C49,31.552,48.552,32,48,32z"/></svg>