<svg xmlns="http://www.w3.org/2000/svg"  viewBox="0 0 80 80" width="80px" height="80px"><path fill="#dcd5f2" d="M14,75.5c-1.93,0-3.5-1.57-3.5-3.5V54c0-0.995,0.44-1.952,1.209-2.624L12.14,51l-0.431-0.376 C10.94,49.952,10.5,48.995,10.5,48V32c0-0.995,0.44-1.952,1.209-2.624L12.14,29l-0.431-0.376C10.94,27.952,10.5,26.995,10.5,26V8 c0-1.93,1.57-3.5,3.5-3.5h52c1.93,0,3.5,1.57,3.5,3.5v18c0,0.995-0.44,1.952-1.209,2.624L67.86,29l0.431,0.376 C69.06,30.048,69.5,31.005,69.5,32v16c0,0.995-0.44,1.952-1.209,2.624L67.86,51l0.431,0.376C69.06,52.048,69.5,53.005,69.5,54v18 c0,1.93-1.57,3.5-3.5,3.5H14z"/><path fill="#8b75a1" d="M66,5c1.654,0,3,1.346,3,3v18c0,0.864-0.369,1.662-1.038,2.247L67.101,29l0.861,0.753 C68.631,30.338,69,31.136,69,32v16c0,0.864-0.369,1.662-1.038,2.247L67.101,51l0.861,0.753C68.631,52.338,69,53.136,69,54v18 c0,1.654-1.346,3-3,3H14c-1.654,0-3-1.346-3-3V54c0-0.864,0.369-1.662,1.038-2.247L12.899,51l-0.861-0.753 C11.369,49.662,11,48.864,11,48V32c0-0.864,0.369-1.662,1.038-2.247L12.899,29l-0.861-0.753C11.369,27.662,11,26.864,11,26V8 c0-1.654,1.346-3,3-3H66 M66,4H14c-2.209,0-4,1.791-4,4v18c0,1.202,0.541,2.267,1.38,3C10.541,29.733,10,30.798,10,32v16 c0,1.202,0.541,2.267,1.38,3C10.541,51.733,10,52.798,10,54v18c0,2.209,1.791,4,4,4h52c2.209,0,4-1.791,4-4V54 c0-1.202-0.541-2.267-1.38-3c0.839-0.733,1.38-1.798,1.38-3V32c0-1.202-0.541-2.267-1.38-3c0.839-0.733,1.38-1.798,1.38-3V8 C70,5.791,68.209,4,66,4L66,4z"/><path fill="#7c6394" d="M25.633 45.018c.647.359 1.776.624 2.664.624 1.464 0 2.208-.769 2.208-1.824 0-1.177-.72-1.753-2.088-2.641-2.208-1.344-3.048-3.048-3.048-4.513 0-2.592 1.728-4.752 5.088-4.752 1.08 0 2.088.288 2.544.576L32.497 35.2c-.456-.288-1.152-.552-2.04-.552-1.344 0-1.992.815-1.992 1.68 0 .96.48 1.465 2.208 2.521 2.16 1.296 2.929 2.928 2.929 4.633 0 2.952-2.185 4.896-5.329 4.896-1.296 0-2.544-.336-3.096-.647L25.633 45.018zM44.882 50.874c-1.368-.576-2.929-1.393-4.152-2.112-.36-.192-.624-.336-.744-.336-3.168 0-5.089-3.049-5.089-8.329 0-4.345 1.753-8.232 5.377-8.232 3.912 0 4.969 4.296 4.969 7.992 0 4.009-.889 6.48-2.425 7.321v.119c1.032.456 2.16.816 3.169 1.2L44.882 50.874zM41.978 40.001c0-3.024-.456-5.4-1.849-5.4-1.319 0-1.992 2.424-1.968 5.472-.048 3.289.552 5.617 1.992 5.617C41.426 45.689 41.978 43.361 41.978 40.001zM47.473 32.056h3.144v13.514h4.129v2.664h-7.272V32.056z"/></svg>